<?xml version="1.0" encoding="UTF-8"?>
<svg xmlns="http://www.w3.org/2000/svg" xmlns:xlink="http://www.w3.org/1999/xlink" viewBox="0 0 961.65 1000">
  <defs>
    <style>
      .cls-1 {
        clip-path: url(#clippath-2);
      }

      .cls-1, .cls-2, .cls-3, .cls-4, .cls-5 {
        fill: none;
      }

      .cls-2 {
        clip-path: url(#clippath-3);
      }

      .cls-6 {
        fill: #161616;
      }

      .cls-4 {
        clip-path: url(#clippath);
      }

      .cls-5 {
        clip-path: url(#clippath-1);
      }

      .cls-7 {
        fill: #19f4f4;
      }
    </style>
    <clipPath id="clippath">
      <rect class="cls-3" x="203.6" y="197.6" width="294.6" height="624.82"/>
    </clipPath>
    <clipPath id="clippath-1">
      <rect class="cls-3" x="498.2" y="197.6" width="294.6" height="624.82"/>
    </clipPath>
    <clipPath id="clippath-2">
      <rect class="cls-3" x="107.8" y="118.98" width="391" height="780.49"/>
    </clipPath>
    <clipPath id="clippath-3">
      <rect class="cls-3" x="498.8" y="118.98" width="391" height="780.49"/>
    </clipPath>
  </defs>
  <g id="Layer_2" data-name="Layer 2">
    <g>
      <g id="_Mirror_Repeat_" data-name="&amp;lt;Mirror Repeat&amp;gt;">
        <g class="cls-4">
          <path class="cls-7" d="m498.6,344.6c-54.4-6-70.9-34.2-79.6-42-10.8-1.2-108,54-125.7,129,13.8,16.8,36.9,32.7,39.9,78.42-15.6,0-129.6,0-129.6,0v-218.22l139.8-94.2h155.2v147Z"/>
          <path class="cls-7" d="m498.8,675.42c-54.4,6-70.9,34.2-79.6,42-10.8,1.2-108-54-125.7-129,13.8-16.8,36.9-32.7,39.9-78.42-15.6,0-129.6,0-129.6,0v218.22l139.8,94.2h155.2v-147Z"/>
        </g>
      </g>
      <g id="_Mirror_Repeat_-2" data-name="&amp;lt;Mirror Repeat&amp;gt;">
        <g class="cls-5">
          <path class="cls-7" d="m497.8,344.6c54.4-6,70.9-34.2,79.6-42,10.8-1.2,108,54,125.7,129-13.8,16.8-36.9,32.7-39.9,78.42,15.6,0,129.6,0,129.6,0v-218.22s-139.8-94.2-139.8-94.2h-155.2v147Z"/>
          <path class="cls-7" d="m497.6,675.42c54.4,6,70.9,34.2,79.6,42,10.8,1.2,108-54,125.7-129-13.8-16.8-36.9-32.7-39.9-78.42,15.6,0,129.6,0,129.6,0v218.22s-139.8,94.2-139.8,94.2h-155.2v-147Z"/>
        </g>
      </g>
    </g>
  </g>
  <g id="Layer_3" data-name="Layer 3">
    <g>
      <g id="_Mirror_Repeat_-3" data-name="&amp;lt;Mirror Repeat&amp;gt;">
        <g class="cls-1">
          <path class="cls-6" d="m500,183.6c-35.6,5-70.6-66-112-64.6-48.75.8-234,93.4-280.2,273.4,0,32.5,60,74.1,65.8,116.82h106.4c-8.85-37.32-41.3-52.22-42.9-77.22-2.3-66.8,118.9-183.6,188.5-186.8,33.2,1.2,35.4,41.2,74.4,43.4v-105Z"/>
          <path class="cls-6" d="m500,834.85c-35.6-5-70.6,66-112,64.6-48.75-.8-234-93.4-280.2-273.4,0-32.5,60-74.1,65.8-116.82h106.4c-8.85,37.32-41.3,52.22-42.9,77.22-2.3,66.8,118.9,183.6,188.5,186.8,33.2-1.2,35.4-41.2,74.4-43.4v105Z"/>
        </g>
      </g>
      <g id="_Mirror_Repeat_-4" data-name="&amp;lt;Mirror Repeat&amp;gt;">
        <g class="cls-2">
          <path class="cls-6" d="m497.6,183.6c35.6,5,70.6-66,112-64.6,48.75.8,234,93.4,280.2,273.4,0,32.5-60,74.1-65.8,116.82-19.66,0-85.1,0-106.4,0,8.85-37.32,41.3-52.22,42.9-77.22,2.3-66.8-118.9-183.6-188.5-186.8-33.2,1.2-35.4,41.2-74.4,43.4,0-36.15,0-105,0-105Z"/>
          <path class="cls-6" d="m497.6,834.85c35.6-5,70.6,66,112,64.6,48.75-.8,234-93.4,280.2-273.4,0-32.5-60-74.1-65.8-116.82-19.66,0-85.1,0-106.4,0,8.85,37.32,41.3,52.22,42.9,77.22,2.3,66.8-118.9,183.6-188.5,186.8-33.2-1.2-35.4-41.2-74.4-43.4v105Z"/>
        </g>
      </g>
    </g>
  </g>
</svg>